<svg width="19" height="23" viewBox="0 0 19 23" fill="none" xmlns="http://www.w3.org/2000/svg">
<path d="M18.85 12C18.85 16.8802 14.6716 20.85 9.5 20.85C4.32839 20.85 0.15 16.8802 0.15 12C0.15 7.11982 4.32839 3.15 9.5 3.15C14.6716 3.15 18.85 7.11982 18.85 12Z" fill="white" stroke="black" stroke-width="0.3"/>
<path d="M11.7193 18H8.28128C8.12528 18 8.04728 17.928 8.04728 17.784V17.01C8.04728 16.866 8.12528 16.794 8.28128 16.794H9.27128V10.35H8.28128C8.12528 10.35 8.04728 10.278 8.04728 10.134V9.36C8.04728 9.216 8.12528 9.144 8.28128 9.144H10.5493C10.6933 9.144 10.7653 9.216 10.7653 9.36V16.794H11.7193C11.8753 16.794 11.9533 16.866 11.9533 17.01V17.784C11.9533 17.928 11.8753 18 11.7193 18ZM10.6933 6.48C10.8973 6.684 10.9993 6.924 10.9993 7.2C10.9993 7.476 10.8973 7.71 10.6933 7.902C10.5013 8.094 10.2673 8.19 9.99128 8.19C9.71528 8.19 9.47528 8.094 9.27128 7.902C9.07928 7.71 8.98328 7.476 8.98328 7.2C8.98328 6.924 9.07928 6.684 9.27128 6.48C9.47528 6.276 9.71528 6.174 9.99128 6.174C10.2673 6.174 10.5013 6.276 10.6933 6.48Z" fill="black"/>
</svg>
