<svg width="36" height="53" viewBox="0 0 36 53" fill="none" xmlns="http://www.w3.org/2000/svg">
<path d="M18.081 46L16.4773 47.195L18.0903 49.3599L19.6914 47.1861L18.081 46ZM18.081 46C19.6914 47.1861 19.6916 47.1858 19.6919 47.1854L19.6926 47.1844L19.6952 47.1809L19.704 47.169L19.7363 47.1247C19.7644 47.0863 19.8052 47.0302 19.8579 46.9573C19.9635 46.8114 20.1167 46.598 20.311 46.3239C20.6993 45.7758 21.2519 44.9842 21.914 44.0026C23.2367 42.0415 25.0032 39.3128 26.7726 36.2477C28.5388 33.1883 30.3277 29.76 31.6802 26.4044C33.0175 23.0861 34 19.667 34 16.6773C34 7.65822 26.7252 2 18.081 2C9.46881 2 2 7.63032 2 16.6773C2 19.6714 2.99517 23.0934 4.34819 26.4118C5.71672 29.7683 7.52669 33.1969 9.31348 36.2564C11.1036 39.3216 12.8906 42.0504 14.2288 44.0115C14.8986 44.9931 15.4576 45.7847 15.8505 46.3328C16.047 46.6069 16.2021 46.8203 16.3088 46.9662C16.3622 47.0391 16.4035 47.0952 16.4318 47.1336L16.4646 47.1779L16.4735 47.1898L16.476 47.1933L16.4768 47.1943C16.4771 47.1947 16.4773 47.195 18.081 46ZM15.93 22.274L14.525 23.6974L15.93 22.274C15.3648 21.7161 15.0521 20.965 15.0521 20.1873C15.0521 19.4097 15.3648 18.6586 15.93 18.1006C16.4961 17.5419 17.2694 17.2233 18.081 17.2233C18.8927 17.2233 19.6659 17.5419 20.232 18.1006C20.7973 18.6586 21.11 19.4097 21.11 20.1873C21.11 20.965 20.7973 21.7161 20.232 22.274C19.6659 22.8328 18.8927 23.1513 18.081 23.1513C17.2694 23.1513 16.4961 22.8328 15.93 22.274Z" stroke="#81A688" stroke-width="4"/>
</svg>
