<svg width="54" height="64" viewBox="0 0 54 64" fill="none" xmlns="http://www.w3.org/2000/svg">
<path d="M27.1331 58L25.6846 59.3791L27.1415 60.9093L28.5896 59.3707L27.1331 58ZM27.1331 58C28.5896 59.3707 28.5899 59.3704 28.5902 59.37L28.5914 59.3688L28.5952 59.3647L28.6091 59.3498L28.6612 59.2941C28.7066 59.2455 28.7729 59.1742 28.8588 59.0812C29.0306 58.8953 29.2808 58.6227 29.5983 58.2721C30.2331 57.5711 31.1372 56.5573 32.2211 55.2997C34.3869 52.7868 37.2792 49.2901 40.1761 45.3629C43.0677 41.4429 45.9938 37.0539 48.2051 32.76C50.3894 28.5187 52 24.1384 52 20.2993C52 14.5911 49.0593 9.94386 44.498 6.79831C39.9745 3.67883 33.8367 2 27.1331 2C20.4302 2 14.2324 3.67838 9.64749 6.78987C5.02827 9.92468 2 14.5699 2 20.2993C2 24.144 3.63135 28.5275 5.84084 32.7684C8.07817 37.0628 11.0385 41.4519 13.9637 45.3718C16.8943 49.2989 19.8202 52.7956 22.0111 55.3084C23.1075 56.5659 24.0222 57.5796 24.6643 58.2807C24.9854 58.6312 25.2386 58.9038 25.4124 59.0897C25.4993 59.1826 25.5663 59.254 25.6122 59.3025L25.6649 59.3582L25.6789 59.3731L25.6828 59.3772L25.684 59.3784C25.6844 59.3788 25.6846 59.3791 27.1331 58ZM27.1331 29.1945C25.3289 29.1945 23.6714 28.6367 22.5138 27.7425C21.3678 26.8572 20.8713 25.7834 20.8713 24.8123C20.8713 23.8412 21.3678 22.7674 22.5138 21.8821C23.6714 20.9878 25.3289 20.43 27.1331 20.43C28.9374 20.43 30.5948 20.9878 31.7525 21.8821C32.8985 22.7674 33.395 23.8412 33.395 24.8123C33.395 25.7834 32.8985 26.8572 31.7525 27.7425C30.5948 28.6367 28.9374 29.1945 27.1331 29.1945Z" stroke="#81A688" stroke-width="4"/>
</svg>
