<svg width="41" height="40" viewBox="0 0 41 40" fill="none" xmlns="http://www.w3.org/2000/svg">
<path d="M25.0849 31.9935L26.5961 32.7258L27.5788 31.3641L30.4589 27.3734C32.7992 28.0771 36.4095 28.4151 38.9994 28.4924C38.9999 28.5793 39 28.6724 39 28.7733L39 35.891C38.9117 36.1379 38.8717 36.2322 38.8578 36.2623C38.8514 36.269 38.8387 36.2817 38.8171 36.3012C38.7785 36.3363 38.7191 36.3864 38.6245 36.4601C38.4658 36.5836 38.2667 36.7286 37.9805 36.9358C27.2142 40.4184 17.2422 34.8605 10.369 26.7963C6.92757 22.7586 4.39376 18.2227 3.0599 14.2037C2.39309 12.1945 2.04433 10.3692 2.00396 8.83636C1.96316 7.28698 2.23961 6.1732 2.67508 5.44998C2.81682 5.21457 3.20131 4.87375 3.96736 4.50519C4.67495 4.16476 5.4531 3.91696 6.16105 3.69301L12.9484 2.00296C13.1109 2.00724 13.2698 2.01646 13.4193 2.0324C13.448 2.03547 13.4756 2.0387 13.502 2.04207C13.5782 4.50614 14.0276 7.62207 14.6831 9.97018C14.531 10.0908 14.3229 10.2606 14.1195 10.4641L10.0509 13.9821L8.93838 14.9441L9.52507 16.2928C12.4205 22.9487 18.725 28.9119 25.0849 31.9935ZM30.8884 26.8465C30.8884 26.8465 30.8877 26.8472 30.8864 26.8485C30.8877 26.8471 30.8884 26.8465 30.8884 26.8465ZM38.9552 27.7183C38.9552 27.7183 38.9553 27.7184 38.9553 27.7184C38.9553 27.7184 38.9553 27.7184 38.9553 27.7184L38.9552 27.7183ZM38.8517 36.2744C38.8519 36.2738 38.8532 36.2709 38.8555 36.2672C38.8526 36.2731 38.8515 36.275 38.8517 36.2744ZM13.9356 2.13889C13.9355 2.13895 13.9329 2.13784 13.9282 2.13537C13.9334 2.13758 13.9357 2.13882 13.9356 2.13889ZM15.1179 9.61744C15.1234 9.61127 15.1265 9.60817 15.1267 9.60815C15.127 9.60814 15.1242 9.61122 15.1179 9.61744Z" stroke="#81A688" stroke-width="4"/>
</svg>
