<svg width="41" height="45" viewBox="0 0 48 45" fill="none" xmlns="http://www.w3.org/2000/svg">
<path fill-rule="evenodd" clip-rule="evenodd" d="M22 22.5C22.0005 22.6015 22.0089 22.6984 22.0187 22.81C22.0324 22.9675 22.0488 23.1543 22.0488 23.425C22.1003 23.5377 22.1003 23.5377 22.1484 23.5674C22.1965 23.597 22.2927 23.6562 22.5366 23.8875L29.3659 29.4375L29.3783 29.449C29.459 29.5239 29.563 29.6205 29.7327 29.7427C29.7435 29.7505 29.7546 29.7584 29.766 29.7664C29.8158 29.8015 29.8709 29.8386 29.9322 29.8777C30.1441 30.013 30.4305 30.1734 30.8293 30.3625L30.8397 30.3665C31.0184 30.4351 31.523 30.6287 31.902 30.7412C32.07 30.7911 32.2133 30.825 32.2927 30.825C32.3635 30.825 32.4853 30.8318 32.6301 30.8398C33.0209 30.8616 33.5796 30.8927 33.7561 30.825C33.9174 30.7631 33.8636 30.3726 33.8099 29.9821C33.783 29.7869 33.7561 29.5917 33.7561 29.4375C33.6731 29.3195 33.5972 29.2112 33.5272 29.1115C33.0842 28.4799 32.8808 28.1899 32.6428 27.9235C32.5399 27.8084 32.4306 27.6977 32.2927 27.5657C32.2625 27.5368 32.2309 27.5069 32.1978 27.4757C32.1392 27.4206 32.0755 27.3614 32.0056 27.2967C32.0038 27.295 32.0019 27.2932 32 27.2915L26 21.7415V15.1564V15.103C26 15.102 26 15.101 26 15.1C26 14.747 25.8893 13.971 25.6987 13.1079C25.34 11.4832 24.6984 9.55 23.98 9.55C23.2595 9.55 22.6334 11.4944 22.2872 13.122C22.1048 13.9794 22 14.7489 22 15.1L22 15.164L22 22.5ZM0 22.5C0 9.79593 11.0248 0 23.98 0C36.9471 0 48 9.78845 48 22.5C48 35.2116 36.9471 45 23.98 45C11.0248 45 0 35.2041 0 22.5ZM4 22.5C4 12.288 12.94 4 23.98 4C35.04 4 44 12.288 44 22.5C44 32.712 35.04 41 23.98 41C12.94 41 4 32.712 4 22.5Z" fill="#81A688"/>
</svg>
