<?xml version="1.0" standalone="no"?>
<!DOCTYPE svg PUBLIC "-//W3C//DTD SVG 20010904//EN"
 "http://www.w3.org/TR/2001/REC-SVG-20010904/DTD/svg10.dtd">
<svg version="1.0" xmlns="http://www.w3.org/2000/svg"
 width="415.000000pt" height="415.000000pt" viewBox="0 0 415.000000 415.000000"
 preserveAspectRatio="xMidYMid meet">
<metadata>
Created by potrace 1.14, written by Peter Selinger 2001-2017
</metadata>
<g transform="translate(0.000000,415.000000) scale(0.100000,-0.100000)"
fill="#000000" stroke="none">
<path d="M1851 4089 c-581 -65 -1110 -362 -1448 -814 -455 -605 -529 -1403
-193 -2074 117 -233 221 -373 417 -561 372 -358 840 -555 1368 -577 577 -23
1126 186 1538 587 277 269 459 574 550 925 180 687 -18 1410 -524 1916 -304
303 -695 504 -1129 579 -144 24 -444 35 -579 19z m564 -38 c225 -38 417 -101
608 -198 980 -499 1380 -1659 908 -2628 -261 -535 -755 -933 -1340 -1079 -185
-47 -302 -60 -516 -60 -353 0 -648 69 -948 221 -980 499 -1380 1659 -908 2628
293 600 871 1020 1541 1119 158 24 171 24 360 21 115 -3 216 -11 295 -24z"/>
<path d="M2322 3560 c-1 -127 2 -168 9 -150 18 43 20 152 5 240 l-14 85 0
-175z"/>
<path d="M2435 3545 c2 -22 7 -71 11 -108 4 -37 11 -70 15 -73 16 -9 9 79 -11
151 -14 49 -18 58 -15 30z"/>
<path d="M2587 3436 c3 -16 14 -54 24 -85 18 -53 19 -54 14 -15 -3 23 -14 61
-25 85 -14 31 -18 36 -13 15z"/>
<path d="M2301 3323 c-25 -54 -94 -134 -160 -182 -153 -113 -266 -144 -563
-157 l-157 -7 37 -29 c94 -75 196 -112 359 -128 92 -9 108 -8 165 11 35 11 74
20 88 21 52 0 182 -62 277 -133 36 -27 53 -33 117 -37 145 -9 284 59 339 167
15 30 27 70 27 90 l0 35 -28 -45 c-59 -92 -179 -159 -282 -158 l-35 0 47 25
c54 28 111 81 133 125 9 16 19 53 22 82 l5 52 -33 -55 c-40 -63 -119 -123
-193 -145 -52 -16 -207 -21 -191 -7 6 4 33 14 60 21 154 38 280 163 301 298 3
23 3 50 0 60 -6 14 -11 8 -27 -27 -51 -113 -164 -201 -301 -234 -23 -5 -19 2
31 52 68 67 109 147 117 223 l5 54 -27 -50 c-37 -68 -129 -155 -213 -199 -87
-45 -106 -46 -54 -2 73 63 133 173 146 269 7 44 4 46 -12 10z"/>
<path d="M2677 3145 c3 -27 7 -52 9 -54 7 -8 2 54 -6 79 -6 17 -7 9 -3 -25z"/>
<path d="M2812 3115 c0 -11 4 -33 8 -50 l8 -30 0 30 c0 17 -3 39 -8 50 l-9 20
1 -20z"/>
<path d="M460 2190 l0 -161 28 3 27 3 0 155 0 155 -27 3 -28 3 0 -161z"/>
<path d="M597 2275 c-38 -41 -67 -79 -65 -85 1 -5 32 -43 67 -85 56 -66 68
-75 98 -75 18 0 33 3 33 6 0 3 -30 42 -66 86 l-66 80 54 57 c85 88 87 91 47
91 -29 -1 -44 -12 -102 -75z"/>
<path d="M910 2328 c-98 -230 -120 -283 -120 -291 0 -4 12 -7 27 -5 25 3 32
14 77 126 l51 123 12 -33 c19 -53 16 -68 -12 -68 -17 0 -28 -7 -34 -22 -11
-29 2 -38 55 -38 38 0 41 -3 62 -45 18 -38 26 -45 51 -45 l29 0 -33 83 c-18
45 -49 117 -69 160 -30 67 -38 77 -61 77 -17 0 -29 -7 -35 -22z"/>
<path d="M1197 2343 c-4 -3 -7 -76 -7 -160 l0 -154 28 3 27 3 3 109 c2 97 4
107 17 90 8 -10 15 -27 15 -36 0 -10 6 -18 13 -19 6 0 38 -34 70 -75 43 -55
63 -74 81 -74 30 0 32 17 28 193 -3 125 -4 127 -26 127 -22 0 -23 -5 -32 -105
l-9 -105 -82 105 c-77 98 -105 120 -126 98z"/>
<path d="M1590 2190 l0 -160 78 0 c132 0 192 50 192 162 0 115 -52 157 -192
158 l-78 0 0 -160z m189 86 c28 -26 37 -93 17 -139 -17 -42 -46 -57 -112 -57
l-44 0 0 111 0 111 60 -4 c38 -3 66 -11 79 -22z"/>
<path d="M2066 2342 c-11 -18 -126 -295 -126 -304 0 -5 12 -8 26 -6 23 3 31
15 65 98 22 52 44 106 50 120 l12 25 13 -32 c16 -38 9 -63 -17 -63 -23 0 -42
-41 -25 -52 6 -4 30 -8 53 -8 40 0 42 -2 59 -45 14 -39 21 -45 45 -45 16 0 29
4 29 9 0 12 -62 163 -100 244 -26 55 -36 67 -55 67 -13 0 -26 -4 -29 -8z"/>
<path d="M2340 2191 l0 -161 105 0 105 0 0 25 c0 24 -2 25 -75 25 l-74 0 -3
133 -3 132 -27 3 -28 3 0 -160z"/>
<path d="M2714 2331 c-50 -23 -74 -68 -74 -143 0 -100 56 -158 153 -158 107 0
157 50 157 160 0 46 -6 74 -19 96 -37 61 -136 82 -217 45z m146 -49 c45 -36
43 -154 -3 -187 -35 -24 -103 -20 -132 10 -21 20 -25 34 -25 85 0 51 4 65 25
85 30 31 101 35 135 7z"/>
<path d="M3033 2338 c3 -7 33 -79 67 -160 59 -140 64 -148 90 -148 26 0 31 7
60 78 18 42 45 108 61 147 35 84 36 95 5 95 -20 0 -29 -14 -71 -115 -26 -63
-51 -115 -55 -115 -4 0 -29 52 -55 115 -46 109 -50 115 -78 115 -19 0 -27 -4
-24 -12z"/>
<path d="M3526 2323 c-22 -45 -116 -272 -116 -283 0 -5 11 -10 24 -10 21 0 29
11 56 78 18 42 41 97 52 122 l20 45 13 -35 c14 -42 10 -60 -16 -60 -10 0 -23
-10 -30 -21 -14 -28 1 -39 57 -39 40 0 42 -2 58 -45 15 -39 21 -45 47 -45 16
0 29 4 29 8 0 10 -61 156 -102 245 -26 54 -36 67 -55 67 -14 0 -27 -10 -37
-27z"/>
<path d="M1384 1757 c-2 -7 -3 -71 -2 -143 3 -121 4 -129 23 -129 19 0 20 8
23 143 2 138 2 142 -18 142 -11 0 -23 -6 -26 -13z"/>
<path d="M2015 1758 c-3 -8 -4 -72 -3 -144 3 -121 4 -129 23 -129 18 0 20 8
23 70 3 78 14 97 51 93 25 -3 26 -6 31 -83 4 -72 7 -80 25 -80 18 0 20 7 20
88 0 105 -12 122 -82 114 l-42 -4 -3 41 c-2 29 -8 42 -21 44 -9 2 -19 -3 -22
-10z"/>
<path d="M1557 1683 c-10 -3 -17 -12 -15 -21 3 -13 14 -17 48 -17 34 0 45 -4
48 -17 3 -14 -3 -18 -28 -18 -33 0 -70 -15 -82 -34 -14 -20 -8 -63 10 -79 20
-19 68 -22 92 -7 9 6 17 5 21 -2 4 -6 14 -8 23 -5 31 12 17 177 -17 199 -13 8
-70 9 -100 1z m83 -122 c0 -25 -24 -43 -52 -39 -31 4 -36 36 -6 47 38 16 58
13 58 -8z"/>
<path d="M1798 1679 c-12 -6 -18 -22 -18 -44 0 -32 5 -37 51 -60 61 -31 59
-50 -4 -49 -38 0 -47 -3 -47 -17 0 -20 20 -29 64 -29 44 0 76 25 76 59 0 32
-23 56 -68 72 -18 6 -32 18 -32 26 0 12 10 14 45 11 32 -2 46 1 50 11 3 8 0
18 -7 23 -18 11 -89 9 -110 -3z"/>
<path d="M2306 1659 c-58 -69 -16 -179 69 -179 43 0 75 15 75 35 0 12 -10 13
-45 8 -46 -6 -75 6 -75 33 0 9 19 14 63 16 l62 3 -2 33 c-3 80 -96 112 -147
51z m94 -13 c0 -2 3 -11 6 -20 5 -13 -2 -16 -35 -16 -39 0 -53 14 -34 33 7 8
63 10 63 3z"/>
<path d="M2558 1679 c-12 -6 -18 -22 -18 -44 0 -32 5 -37 51 -60 61 -31 59
-50 -4 -49 -38 0 -47 -3 -47 -17 0 -20 20 -29 64 -29 44 0 76 25 76 59 0 32
-23 56 -68 72 -18 6 -32 18 -32 26 0 12 10 14 45 11 32 -2 46 1 50 11 3 8 0
18 -7 23 -18 11 -89 9 -110 -3z"/>
</g>
</svg>
